<?xml version="1.0" encoding="UTF-8"?> <svg xmlns="http://www.w3.org/2000/svg" width="503" height="112" viewBox="0 0 503 112" fill="none"> <g clip-path="url(#clip0_145_2)"> <mask id="mask0_145_2" style="mask-type:luminance" maskUnits="userSpaceOnUse" x="0" y="0" width="503" height="112"> <path d="M502.7 0H0V111.5H502.7V0Z" fill="white"></path> </mask> <g mask="url(#mask0_145_2)"> <path fill-rule="evenodd" clip-rule="evenodd" d="M440.9 81.3V73H397.9V38.3H440.9V30H399.3C396.7 30 394.4 30.9 392.6 32.8C390.7 34.7 389.8 36.9 389.8 39.6V71.9C389.8 74.5 390.7 76.8 392.6 78.6C394.5 80.5 396.7 81.4 399.3 81.4H440.9V81.3Z" fill="#00ABAA"></path> <path fill-rule="evenodd" clip-rule="evenodd" d="M267.9 81.3H315V73H276V59.8H307.4V51.5H276V38.3H315V30H267.9V81.3Z" fill="#00ABAA"></path> <path fill-rule="evenodd" clip-rule="evenodd" d="M197 81.3H205V41.4L225.9 66L246.6 41.3V81.3H254.7V30H245.3L225.9 53.2L206.4 30H197V81.3Z" fill="#00ABAA"></path> <path fill-rule="evenodd" clip-rule="evenodd" d="M156.2 55.8C156.2 63.2 162.2 69.2 169.6 69.2C177 69.2 183 63.2 183 55.8C183 48.4 177 42.4 169.6 42.4C167.7 42.4 165.8 42.8 164.2 43.5C163.8 43.7 163.4 43.8 162.9 43.7C161.2 43.7 159.8 42.2 159.9 40.5C159.9 39.9 160.1 39.4 160.3 39C161.9 36.4 162.9 33.4 162.9 30.1C162.9 20.9 155.4 13.4 146.2 13.4C137 13.4 129.5 20.9 129.5 30.1C129.5 33.5 130.5 36.6 132.2 39.2C132.5 39.7 132.7 40.4 132.7 41.1C132.7 43 131.1 44.5 129.2 44.5C128.7 44.5 128.2 44.4 127.7 44.2C125.2 43 122.4 42.4 119.4 42.4C116.2 42.4 113.2 43.1 110.6 44.4C110 44.7 109.4 44.8 108.7 44.8C106.3 44.8 104.3 42.8 104.3 40.4C104.3 39.6 104.5 38.9 104.8 38.3C106.9 34.6 108.2 30.2 108.2 25.6C108.2 11.5 96.7 0 82.5 0C68.4 0 56.9 11.5 56.9 25.6C56.9 29.8 57.9 33.8 59.7 37.4C60.1 38.1 60.3 39 60.4 39.8C60.7 43.5 58 46.7 54.3 47C53 47.1 51.7 46.8 50.6 46.2C45.8 43.7 40.4 42.3 34.6 42.3C15.5 42.4 0 57.9 0 77C0 96.1 15.5 111.6 34.6 111.6C53.7 111.6 69.2 96.1 69.2 77C69.2 70.4 67.3 64.2 64.1 58.9C63.6 58.1 63.2 57.1 63.1 56.1C62.7 52.4 65.4 49.1 69.1 48.8C70.3 48.7 71.4 48.9 72.4 49.3C75.5 50.6 78.9 51.4 82.5 51.4C87.1 51.4 91.5 50.2 95.2 48C95.8 47.7 96.5 47.5 97.3 47.5C99.7 47.5 101.7 49.5 101.7 51.9C101.7 52.6 101.5 53.2 101.3 53.8C100 56.5 99.3 59.4 99.3 62.6C99.3 73.7 108.3 82.7 119.4 82.7C130.5 82.7 139.5 73.7 139.5 62.6C139.5 58.2 138.1 54.2 135.7 50.9C135.3 50.3 135.1 49.7 135.1 48.9C135.1 47 136.7 45.5 138.6 45.5C139 45.5 139.4 45.6 139.8 45.7C141.7 46.5 143.9 46.9 146.1 46.9C148.9 46.9 151.5 46.2 153.8 45C154.2 44.8 154.7 44.7 155.2 44.7C156.9 44.8 158.2 46.2 158.2 47.9C158.2 48.4 158.1 48.8 157.9 49.2C156.8 51.1 156.2 53.4 156.2 55.8Z" fill="#00ABAA"></path> <path fill-rule="evenodd" clip-rule="evenodd" d="M335 55.6V73.2H356.7C361.4 73.2 364.4 72.1 367.6 68.7C369.6 66.6 370.7 64.4 370.7 60.2V55.6V51C370.7 46.8 369.5 44.6 367.6 42.5C364.4 39.1 361.3 38 356.7 38H335V55.6ZM379.6 55.6V60.2C379.6 65.6 377.6 70.5 374.2 74.2C369.6 79.4 363.1 81.2 356.4 81.2H326.1V55.6V30H356.4C363.2 30 369.6 31.8 374.2 37C377.5 40.7 379.6 45.6 379.6 51V55.6Z" fill="#00ABAA"></path> <path fill-rule="evenodd" clip-rule="evenodd" d="M451.8 30V81.3H461.4L494.7 41.6V81.3H502.7V30H493.6L459.9 70.1V30H451.8Z" fill="#00ABAA"></path> </g> </g> <defs> <clipPath id="clip0_145_2"> <rect width="503" height="112" fill="white"></rect> </clipPath> </defs> </svg> 